<?xml version="1.0" encoding="UTF-8"?>
<svg viewBox="0 0 1137.4224 400.09656" xmlns="http://www.w3.org/2000/svg" xmlns:xlink="http://www.w3.org/1999/xlink">
 <defs>
  <path id="c" d="m0 0h1235v50h-1235z" fill="#bf0a30"/>
  <g id="u">
   <use y="-.216" width="744.09448" height="1052.3622" xlink:href="#i"/>
   <use width="744.09448" height="1052.3622" xlink:href="#i"/>
   <use y=".216" width="744.09448" height="1052.3622" xlink:href="#g"/>
  </g>
  <g id="i">
   <use width="744.09448" height="1052.3622" xlink:href="#g"/>
   <use y=".054" width="744.09448" height="1052.3622" xlink:href="#h"/>
   <use y=".108" width="744.09448" height="1052.3622" xlink:href="#g"/>
   <use y=".162" width="744.09448" height="1052.3622" xlink:href="#h"/>
  </g>
  <g id="g">
   <use x="-.063" width="744.09448" height="1052.3622" xlink:href="#h"/>
   <use x=".315" width="744.09448" height="1052.3622" xlink:href="#d"/>
  </g>
  <g id="h">
   <use x="-.252" width="744.09448" height="1052.3622" xlink:href="#d"/>
   <use x="-.126" width="744.09448" height="1052.3622" xlink:href="#d"/>
   <use width="744.09448" height="1052.3622" xlink:href="#d"/>
   <use x=".126" width="744.09448" height="1052.3622" xlink:href="#d"/>
   <use x=".252" width="744.09448" height="1052.3622" xlink:href="#d"/>
  </g>
  <g id="d">
   <use transform="matrix(-.80902,-.58779,.58779,-.80902,0,0)" width="744.09448" height="1052.3622" xlink:href="#e"/>
   <use transform="matrix(.30902,-.95106,.95106,.30902,0,0)" width="744.09448" height="1052.3622" xlink:href="#e"/>
   <use width="744.09448" height="1052.3622" xlink:href="#e"/>
   <use transform="rotate(72)" width="744.09448" height="1052.3622" xlink:href="#e"/>
   <use transform="matrix(-.80902,.58779,-.58779,-.80902,0,0)" width="744.09448" height="1052.3622" xlink:href="#e"/>
  </g>
  <path id="e" transform="scale(.0616)" d="m.16246,0h-.32492l.16246-.5z" fill="#fff"/>
  <filter id="be">
   <feGaussianBlur stdDeviation="1.6718"/>
  </filter>
  <filter id="bd">
   <feGaussianBlur stdDeviation="1.6809"/>
  </filter>
  <filter id="t">
   <feGaussianBlur stdDeviation=".675"/>
  </filter>
  <filter id="ax">
   <feGaussianBlur stdDeviation="1.5098"/>
  </filter>
  <filter id="aw">
   <feGaussianBlur stdDeviation=".3119"/>
  </filter>
  <filter id="av">
   <feGaussianBlur stdDeviation=".2227"/>
  </filter>
  <filter id="as">
   <feGaussianBlur stdDeviation="10.1577"/>
  </filter>
  <filter id="aq">
   <feGaussianBlur stdDeviation=".5615"/>
  </filter>
  <filter id="ap">
   <feGaussianBlur stdDeviation=".5647"/>
  </filter>
  <filter id="an">
   <feGaussianBlur stdDeviation=".831"/>
  </filter>
  <filter id="al">
   <feGaussianBlur stdDeviation="1.2989"/>
  </filter>
  <filter id="ai">
   <feGaussianBlur stdDeviation=".9827"/>
  </filter>
  <filter id="ag">
   <feGaussianBlur stdDeviation="1.2729"/>
  </filter>
  <filter id="b">
   <feGaussianBlur stdDeviation="1.3115"/>
  </filter>
  <filter id="k">
   <feGaussianBlur stdDeviation=".7233"/>
  </filter>
  <filter id="w">
   <feGaussianBlur stdDeviation="1.4715"/>
  </filter>
  <filter id="v">
   <feGaussianBlur stdDeviation="4.3834"/>
  </filter>
  <filter id="bf" x="-.03379" y="-.23277" width="1.0676" height="1.4655">
   <feGaussianBlur stdDeviation="8.9134"/>
  </filter>
  <filter id="bc" x="-.01291" y="-.17073" width="1.0258" height="1.3414">
   <feGaussianBlur stdDeviation="1.8925"/>
  </filter>
  <filter id="bb" x="-.30084" y="-.49138" width="1.6017" height="1.9828">
   <feGaussianBlur stdDeviation="7.4276"/>
  </filter>
  <filter id="ba" x="-.18405" y="-.41888" width="1.3681" height="1.8378">
   <feGaussianBlur stdDeviation="6.1207"/>
  </filter>
  <filter id="az" x="-.09182" y="-.13167" width="1.1836" height="1.2634">
   <feGaussianBlur stdDeviation="1.4816"/>
  </filter>
  <filter id="ay" x="-.55358" y="-.09079" width="2.1072" height="1.1816">
   <feGaussianBlur stdDeviation="1.1905"/>
  </filter>
  <filter id="au" x="-.04243" y="-.24918" width="1.0848" height="1.4984">
   <feGaussianBlur stdDeviation="10.1853"/>
  </filter>
  <filter id="s" x="-.20902" y="-.20902" width="1.418" height="1.418">
   <feGaussianBlur stdDeviation=".8078"/>
  </filter>
  <filter id="r" x="-.23798" y="-.23798" width="1.476" height="1.476">
   <feGaussianBlur stdDeviation=".6898"/>
  </filter>
  <filter id="q" x="-.19532" y="-.19532" width="1.3906" height="1.3906">
   <feGaussianBlur stdDeviation=".8177"/>
  </filter>
  <filter id="p" x="-.17848" y="-.17848" width="1.357" height="1.357">
   <feGaussianBlur stdDeviation=".6898"/>
  </filter>
  <filter id="at" x="-.03762" y="-.14814" width="1.0752" height="1.2963">
   <feGaussianBlur stdDeviation=".686"/>
  </filter>
  <filter id="ar" x="-.1276" y="-.13703" width="1.2552" height="1.2741">
   <feGaussianBlur stdDeviation="1.0094"/>
  </filter>
  <filter id="ao" x="-.28018" y="-.13401" width="1.5604" height="1.268">
   <feGaussianBlur stdDeviation="1.1139"/>
  </filter>
  <filter id="am" x="-.05818" y="-.57885" width="1.1164" height="2.1577">
   <feGaussianBlur stdDeviation="7.5115"/>
  </filter>
  <filter id="ak" x="-.13292" y="-.51672" width="1.2658" height="2.0334">
   <feGaussianBlur stdDeviation="6.9789"/>
  </filter>
  <filter id="aj" x="-.18096" y="-.78333" width="1.3619" height="2.5667">
   <feGaussianBlur stdDeviation="10.8778"/>
  </filter>
  <filter id="ah" x="-.14358" y="-.91625" width="1.2872" height="2.8325">
   <feGaussianBlur stdDeviation="6.8946"/>
  </filter>
  <filter id="af" x="-.18238" y="-.19896" width="1.3648" height="1.3979">
   <feGaussianBlur stdDeviation=".2447"/>
  </filter>
  <filter id="o" x="-.32617" y="-.32617" width="1.6523" height="1.6523">
   <feGaussianBlur stdDeviation=".7291"/>
  </filter>
  <filter id="a" x="-.33087" y="-.36094" width="1.6617" height="1.7219">
   <feGaussianBlur stdDeviation=".2705"/>
  </filter>
  <filter id="ae" x="-.21145" y="-.21145" width="1.4229" height="1.4229">
   <feGaussianBlur stdDeviation=".4333"/>
  </filter>
  <filter id="ac" x="-.16477" y="-.2666" width="1.3295" height="1.5332">
   <feGaussianBlur stdDeviation=".2802"/>
  </filter>
  <filter id="ab" x="-.26604" y="-.46932" width="1.5321" height="1.9386">
   <feGaussianBlur stdDeviation="2.1311"/>
  </filter>
  <filter id="aa" x="-.09353" y="-.52086" width="1.1871" height="2.0417">
   <feGaussianBlur stdDeviation="2.4532"/>
  </filter>
  <filter id="n" x="-.61057" y="-.30529" width="2.2212" height="1.6106">
   <feGaussianBlur stdDeviation="5.5664"/>
  </filter>
  <filter id="m" x="-.40065" y="-.44778" width="1.8013" height="1.8956">
   <feGaussianBlur stdDeviation="1.0515"/>
  </filter>
  <filter id="l" x="-.16243" y="-.02787" width="1.3249" height="1.0557">
   <feGaussianBlur stdDeviation=".82"/>
  </filter>
  <filter id="j" x="-.72142" y="-.04492" width="2.4428" height="1.0898">
   <feGaussianBlur stdDeviation=".9867"/>
  </filter>
  <filter id="z" x="-.20416" y="-.42061" width="1.4083" height="1.8412">
   <feGaussianBlur stdDeviation="3.6902"/>
  </filter>
  <filter id="y" x="-.26102" y="-.52599" width="1.522" height="2.052">
   <feGaussianBlur stdDeviation="3.6695"/>
  </filter>
  <filter id="f" x="-.17445" y="-.17445" width="1.3489" height="1.3489">
   <feGaussianBlur stdDeviation=".5716"/>
  </filter>
  <filter id="x" x="-.366" y="-.366" width="1.732" height="1.732">
   <feGaussianBlur stdDeviation="1.1993"/>
  </filter>
  <filter id="ad" x="-.07767" y="-.12567" width="1.1553" height="1.2513"/>
 </defs>
 <g transform="translate(426.66 476.78)">
  <g transform="matrix(1 0 0 -1 -20.721 47.154)">
   <path transform="matrix(1.1228 0 0 1 -67.811 0)" d="m552.31 230.2h7.2934c5.7479 23.538 4.8613 47.075 4.6412 70.613h-6.9618z" fill="#333" filter="url(#l)"/>
   <path d="m562.91 247.11c22.065-13.314 48.552-16.678 73.928-22.543 10.443 24.311 11.48 48.291 6.9618 72.602l-14.918-0.33151-0.99455 2.3206-17.902-1.3261-1.3261 1.6576-6.9618-2.6521-3.9782 0.66303-2.3206-1.3261-4.3097-0.33152-2.6521-2.3206h-6.6303l-4.6412-0.33151-13.924-2.9836c3.3318-13.677 0.32937-28.621-0.33152-43.097z" fill="#28292b"/>
   <path transform="matrix(1 0 0 -1 .53212 517.23)" d="m622.92 228.55 13.592-2.9836 8.2879 36.135-6.9618 5.9673-11.603 1.6576z" fill="#ccc" fill-rule="evenodd" filter="url(#n)"/>
   <path d="m588.44 248.77v5.6358l6.2988-3.9782z" fill="#ccc" fill-rule="evenodd" filter="url(#m)"/>
   <path d="m625.24 225.89c10.654 21.742 9.0581 46.311 8.6194 70.613" fill="none" filter="url(#b)" stroke="#000" stroke-linejoin="round" stroke-width="1.1"/>
   <path d="m615.29 226.89c12.522 23.869 8.5244 47.738 8.6194 71.607" fill="none" filter="url(#b)" stroke="#000" stroke-linejoin="round" stroke-width="1.1"/>
   <path d="m605.02 228.21c11.54 25.239 10.618 47.545 7.2934 69.287" fill="none" filter="url(#b)" stroke="#000" stroke-linejoin="round" stroke-width="1.1"/>
   <path d="m598.39 229.87c6.1608 20.877 8.6134 42.895 3.3152 67.298" fill="none" filter="url(#b)" stroke="#000" stroke-linejoin="round" stroke-width="1.1"/>
   <path d="m591.09 231.53c8.2564 20.288 4.9254 42.684 3.9782 64.646" fill="none" filter="url(#b)" stroke="#000" stroke-linejoin="round" stroke-width="1.1"/>
   <path d="m585.13 233.52c2.7559 16.39 5.6584 32.552 0.66303 60.999" fill="none" filter="url(#b)" stroke="#000" stroke-linejoin="round" stroke-width="1.1"/>
   <path d="m576.84 237.16c5.2773 15.109 5.1069 44.663 0.66304 56.358" fill="none" filter="url(#b)" stroke="#000" stroke-linejoin="round" stroke-width="1.1"/>
   <path d="m569.21 240.15c2.9565 15.912 4.1123 33.265 2.6521 52.711" fill="none" filter="url(#j)" stroke="#000" stroke-linejoin="round" stroke-width="1.1"/>
   <path d="m561.59 243.46c30.805-16.664 51.547-15.44 74.923-18.896" fill="none" filter="url(#k)" stroke="#000" stroke-linejoin="round" stroke-width="1.1"/>
  </g>
  <path d="m-402.98-260.02 6.1145 26.496 79.999 8.1527 2.5477-32.101 85.094-2.5477c18.554-1.0711 37.664-2.8572 37.706 19.872-4.7799 29.259-20.862 22.998-34.649 23.949v12.229l322.54 51.464 0.99894 4.5246 91.517 9.3679 183.03 5.7648 92.237 8.6473 86.972-1.4038 1.7931 23.035h-5.0954v6.1145h12.229l61.145 13.248v3.5668h-61.655l-15.796-1.5286h-82.037l-76.432-5.0954-406.62-54.521-249.17-34.14c-46.197-7.1378-96.435-26.848-140.12-40.254v-39.999l7.6432-3.8851" fill="#333"/>
  <g transform="translate(13.235 -325.96)">
   <path d="m-423.43 111.23c-26.369-15.955-17.042-27.983 0-40.764z"/>
   <path d="m-333.24 37.349 8.1527-0.50954-2.0382 31.082 2.9891 33.63-94.89-7.453 3.049-27.196 50.636-18.853z"/>
   <path d="m-365.85 48.559-3.5668 13.758 29.044 2.5477v-7.1336l9.6814 0.50954-3.0573-20.382z" fill="#e6e6e6" filter="url(#az)"/>
  </g>
  <path d="m-314.32-257.47 85.094-2.5477c18.554-1.0711 37.664-2.8572 37.706 19.872-4.7799 29.259-20.862 22.998-34.649 23.949v12.229l322.54 51.464 0.99894 4.5246 91.517 9.3679 183.03 5.7648 92.237 8.6473 86.861-1.3851-7.2681-46.792-4.0764-15.796h10.191l5.0954-7.1336c32.805 0.50954 63.348-5.4039 36.178-50.954-5.452-4.5089-20.721-3.0573-31.082-4.5859l1.0687-26.93 3.8471-3.6953 37.031-15.974c-14.67-3.863-43.217-4.2077-55.705-13.527l2.5477-2.5477-6.1145-3.5668 118.72-132.48 36.178 9.1718 9.6814-13.248-1.0191-13.248-48.916-6.1145c-13.877-1.5645-26.707 3.1521-39.235 9.6814l-198.72 157.45c-7.0828 6.7939-17.004 13.588-17.834 20.382l-8.1527 17.834h-14.777l-401.01-47.897-127.39-14.267-29.554-3.5668c-14.775-2.5343-29.83-7.5789-43.311 1.5286-12.229 8.6623-32.726 22.285-36.687 25.987-17.315 4.5616-35.202 9.3493-53.25 14.62z" fill="#ccc"/>
  <path d="m-191.13-325.66 580.45 62.882s2.4185 29.023-2.4185 29.023-522.41-53.208-522.41-53.208l-107.63 15.721 36.278-20.558z" fill="#f2f2f2" fill-rule="evenodd" filter="url(#bf)"/>
  <path d="m-224.99-204.74 366.41 21.767 110.04 20.558 135.44 14.511-163.25-10.883-12.093-4.8371-122.14-8.4649-1.2093 6.0464z" fill="#f2f2f2" fill-rule="evenodd" filter="url(#be)"/>
  <path d="m-237.08-203.53 37.487 1.2093 228.55 33.86v-6.0464l123.35 7.2556 19.348 6.0464 204.37 16.93-197.11-3.6278-15.721-4.8371-37.487 6.0464-93.114-12.093z" fill="#808080" fill-rule="evenodd" filter="url(#bd)"/>
  <path d="m21.7-161.2 90.695 7.6011 45.952 1.382 160.83 7.486 54.417 3.8006-1.2093 11.171-241.85-8.6376z" fill-rule="evenodd" filter="url(#bc)"/>
  <path d="m-306.01-288.18 38.697-10.883 19.348 20.558-59.254 15.721z" fill="#fff" fill-rule="evenodd" filter="url(#bb)"/>
  <path d="m-395.5-254.32 33.86-14.511 2.4185 14.511 39.906-2.4186 1.2093 22.976-79.812-1.2093z" fill="#808080" fill-rule="evenodd" filter="url(#ba)" opacity=".4792"/>
  <path d="m-417.66-247.24 5.1614-4.4445-0.43011 31.47z" fill="#999" fill-rule="evenodd" filter="url(#ay)" opacity=".4792"/>
  <g transform="translate(-256.93 84.088)" fill="#1a1a1a">
   <path d="m9.2905-396.45 11.479 12.044 16.489-23.521-1.6974-1.9398h-9.2142z" filter="url(#t)"/>
   <path d="m23.026-383.91 16.657-24.985 11.397 4.2909 2.6673 9.5305-1.6974 3.6372-21.341 10.921z" filter="url(#t)"/>
  </g>
  <path d="m-152.91-328.23-1.2465 53.88 140.15 15.572 1.2465-52.952-1.2351 52.955 141.69 17.125-0.93203-53.876 1.2465 53.876 138.27 17.129-3.1144-56.058 2.7999 55.752 118.66 14.321v-52.944" fill="none" opacity=".16" stroke="#000" stroke-width=".4"/>
  <g transform="translate(-9.7901 -402.41)" filter="url(#ax)">
   <path d="m-131.9 126.49 12.486 0.96045-0.6403 8.3239-11.846-0.32015z" stroke="#fff" stroke-linejoin="round" stroke-width=".4"/>
   <path d="m-80.678 131.93 14.727 2.241-0.96045 8.3239-14.727-2.241z" fill-rule="evenodd" stroke="#fff" stroke-linejoin="round" stroke-width=".4"/>
   <path d="m-30.734 138.01 16.648 2.241-1.6008 8.0037-15.367-2.5612z" fill-rule="evenodd" stroke="#fff" stroke-linejoin="round" stroke-width=".4"/>
   <path d="m5.1224 142.18 16.007 1.6008-1.2806 8.3239-14.407-1.2806z" fill-rule="evenodd" stroke="#fff" stroke-linejoin="round" stroke-width=".4"/>
   <path d="m57.627 148.26 13.446 0.96045-0.96045 9.2843-13.126-2.241z" fill-rule="evenodd" stroke="#fff" stroke-linejoin="round" stroke-width=".4"/>
   <path d="m108.21 154.34 13.126 1.6008-1.9209 8.3239-11.846-0.96045z" fill-rule="evenodd" stroke="#fff" stroke-linejoin="round" stroke-width=".4"/>
   <path d="m149.19 159.14 4.8476-0.10219v4.9044l-2.8177 0.32015 0.0318 2.5612h-4.2574l-0.10898-3.2719 2.2729 0.0704z"/>
   <path d="m199.23 165.4 4.8476-0.10219v4.9044l-2.8177 0.32015 0.0318 2.5612h-4.2574l-0.10898-3.2719 2.2729 0.0704z"/>
   <path d="m249.27 170.69 4.8476-0.10219v4.9044l-2.8177 0.32015 0.0318 2.5612h-4.2574l-0.10898-3.2719 2.2729 0.0704z"/>
   <path d="m282.96 175.02 4.8476-0.10219v4.9044l-2.8177 0.32015 0.0318 2.5612h-4.2574l-0.10898-3.2719 2.2729 0.0704z"/>
   <path d="m328.19 179.35 4.8476-0.10219v4.9044l-2.8177 0.32015 0.0318 2.5612h-4.2574l-0.10898-3.2719 2.2729 0.0704z"/>
   <path d="m372.93 184.65 4.8476-0.10219v4.9044l-2.8177 0.32015 0.0318 2.5612h-4.2574l-0.10898-3.2719 2.2729 0.0704z"/>
   <path d="m398.44 187.53 4.8476-0.10219v4.9044l-2.8177 0.32015 0.0318 2.5612h-4.2574l-0.10898-3.2719 2.2729 0.0704z"/>
  </g>
  <g transform="translate(-14.015 -403.31)" filter="url(#aw)">
   <path d="m-212.72 177.89 20.604 1.8562c3.7468-5.2483 4.3087-9.2227 5.7543-13.551 2.0876-10.123-4.6274-14.796-12.808-18.562-12.898 2.1003-14.762 7.7116-17.077 13.179 0.73183 6.1721 1.3746 12.44 3.5268 17.077z" fill="#ccc"/>
   <path transform="matrix(1.1836 0 0 1.1836 32.584 -34.211)" d="m-193.23 167.12c0 2.4604-1.9946 4.455-4.455 4.455s-4.455-1.9946-4.455-4.455 1.9946-4.455 4.455-4.455 4.455 1.9946 4.455 4.455z" fill="#666" filter="url(#av)" stroke="#000" stroke-linejoin="round" stroke-width="1.2"/>
  </g>
  <path transform="matrix(1 0 0 1.0503 -43.601 -91.918)" d="m-133.92-159.12h49.83l504.53 63.844 6.2287 34.258-272.51-37.372-179.08-4.6715-109-12.457h-15.572z" fill="#b3b3b3" fill-rule="evenodd" filter="url(#au)"/>
  <g transform="translate(-12.457 -400.19)" fill-rule="evenodd">
   <path transform="matrix(.72917 0 0 1.6394 -90.849 -96.779)" d="m-335.44 155.98c0 2.5612-2.0762 4.6374-4.6374 4.6374s-4.6374-2.0762-4.6374-4.6374 2.0762-4.6374 4.6374-4.6374 4.6374 2.0762 4.6374 4.6374z" fill="#666" filter="url(#s)"/>
   <path transform="matrix(1.2635 0 0 1.2635 84.441 -38.32)" d="m-311.87 146.9c0 1.9209-1.5572 3.4781-3.4781 3.4781s-3.4781-1.5572-3.4781-3.4781 1.5572-3.4781 3.4781-3.4781 3.4781 1.5572 3.4781 3.4781z" fill="#b3b3b3" filter="url(#r)"/>
   <path transform="translate(1.3526 .38645)" d="m-311.87 146.9c0 1.9209-1.5572 3.4781-3.4781 3.4781s-3.4781-1.5572-3.4781-3.4781 1.5572-3.4781 3.4781-3.4781 3.4781 1.5572 3.4781 3.4781z" filter="url(#r)"/>
   <path transform="matrix(1.0614 0 0 1.0614 19.5 -9.1538)" d="m-309.74 158.5c0 2.5612-2.0762 4.6374-4.6374 4.6374s-4.6374-2.0762-4.6374-4.6374 2.0762-4.6374 4.6374-4.6374 4.6374 2.0762 4.6374 4.6374z" fill="#666" filter="url(#p)"/>
   <path d="m-309.74 158.5c0 2.5612-2.0762 4.6374-4.6374 4.6374s-4.6374-2.0762-4.6374-4.6374 2.0762-4.6374 4.6374-4.6374 4.6374 2.0762 4.6374 4.6374z" filter="url(#p)"/>
   <path transform="matrix(.71154 0 0 1.6612 -93.774 -100.84)" d="m-323.07 156.95c0 2.7746-2.2493 5.0239-5.0239 5.0239s-5.0239-2.2493-5.0239-5.0239 2.2493-5.0239 5.0239-5.0239 5.0239 2.2493 5.0239 5.0239z" fill="#666" filter="url(#q)"/>
   <path transform="matrix(.71154 0 0 1 -93.774 -.38645)" d="m-323.07 156.95c0 2.7746-2.2493 5.0239-5.0239 5.0239s-5.0239-2.2493-5.0239-5.0239 2.2493-5.0239 5.0239-5.0239 5.0239 2.2493 5.0239 5.0239z" filter="url(#q)"/>
   <path transform="matrix(.72917 0 0 1 -90.849 0)" d="m-335.44 155.98c0 2.5612-2.0762 4.6374-4.6374 4.6374s-4.6374-2.0762-4.6374-4.6374 2.0762-4.6374 4.6374-4.6374 4.6374 2.0762 4.6374 4.6374z" filter="url(#s)"/>
  </g>
  <g transform="matrix(.99832 .05793 -.05793 .99832 -20.243 -403.31)" fill="#333" fill-rule="evenodd" filter="url(#at)" font-family="Arial" font-size="11.825" font-style="oblique" font-weight="bold" text-anchor="middle">
   <path d="m-198.81 132.99h-3.3547l-1.0162 1.8708h-1.79l4.7867-8.4648h1.9343l1.3742 8.4648h-1.6514zm-0.21364-1.4089-0.4908-3.4067-2.044 3.4067z"/>
   <path d="m-195.40665,129.96329 .25406-1.22988h.80837l.20209-.98159 1.89967-1.14326-.44461,2.12485h1.01046l-.25405,1.22988h-1.01624l-.53699,2.56945c-.0962.46578-.14435.73139-.14435.79682 0,.12703.0404.22616.12126.29737s.22711.10682.43883.10682c.0731,0 .25598-.0135.54853-.0404l-.25983,1.22987c-.28486.0577-.57741.0866-.87766.0866-.5851,0-1.01046-.11259-1.27606-.33778s-.39841-.53795-.39841-.93828c0-.18862.0712-.6236.21364-1.30494l.51389-2.46552z"/>
   <path d="m-191.88 134.87 1.7726-8.4648h1.6514l-1.7669 8.4648z"/>
   <path d="m-186.25476,130.47141-1.61674-.13858c.18477-.54661.50715-.97389.96715-1.28184s1.06916-.46192 1.82749-.46193c.78912,1e-005 1.3723.15879 1.74954.47636s.56585.7054.56586,1.16347c-1e-005,.18478-.0164.3811-.0491.58896s-.14724.75448-.34356,1.63983c-.16167.73138-.24251,1.24335-.24251,1.5359 0,.26176.0462.55239.13858.87188h-1.61096c-.0654-.22326-.10586-.45422-.12126-.69288-.24251.26945-.52159.47636-.83723.62071s-.63323.21652-.95272.21652c-.50812,0-.9277-.16648-1.25875-.49945s-.49657-.76121-.49657-1.28473c0-.5851.18188-1.0528.54565-1.4031s1.01335-.562 1.94875-.63514c.78911-.0654 1.31648-.14435 1.58209-.23674 .0693-.23096.10393-.41573.10393-.55431 0-.17706-.0712-.32526-.21364-.4446s-.35415-.17899-.63515-.179c-.2964,1e-005-.53025.0606-.70154.18189s-.28775.29352-.34933.51678zm1.57631,1.53589c-.10008.0269-.23289.052-.39841.0751-.83146.10008-1.37422.24636-1.62828.43883-.18092.13858-.27138.32527-.27138.56008 0,.19247.0693.35511.20786.48791s.32142.1992.54854.1992c.25021,0 .48598-.0606.70732-.18188s.38686-.27715.49657-.4677 .2069-.4879.29159-.89209z"/>
   <path d="m-180.70589,128.73341h1.57054l-.16167.79682c.39263-.33874.75928-.58028 1.09995-.72464s.69962-.21652 1.07687-.21653c.50426,1e-005 .9017.14436 1.19234.43306s.43593.67172.43594,1.14903c-1e-005,.21557-.0635.62361-.19054,1.2241l-.72176,3.47021h-1.65716l.72754-3.48175c.10777-.51966.16166-.82954.16167-.92963-1e-005-.21171-.0626-.37819-.18766-.49945s-.29929-.18188-.52255-.18189c-.24252,1e-005-.51197.10202-.80837.30603s-.52929.47348-.69866.80837c-.12318.23866-.26176.72561-.41573,1.46083l-.52544,2.51749h-1.65716z"/>
   <path d="m-174.36598,129.96329 .25406-1.22988h.80837l.20209-.98159 1.89966-1.14326-.4446,2.12485h1.01046l-.25406,1.22988h-1.01623l-.53699,2.56945c-.0962.46578-.14435.73139-.14435.79682 0,.12703.0404.22616.12126.29737s.22711.10682.43882.10682c.0731,0 .25598-.0135.54854-.0404l-.25983,1.22987c-.28486.0577-.57741.0866-.87766.0866-.58511,0-1.01046-.11259-1.27607-.33778s-.39841-.53795-.39841-.93828c0-.18862.0712-.6236.21364-1.30494l.51389-2.46552z"/>
   <path d="m-169.07 126.4h1.6572l-0.3118 1.5013h-1.6572zm-0.48503 2.3327h1.6572l-1.2818 6.132h-1.6572z"/>
   <path d="m-167.76623,133.15057 1.60519-.25406c.14242.33875.31949.57837.53121.71887s.50042.21075.86611.21075c.37724,0 .67941-.0847.90653-.25406 .15782-.11548.23673-.25598.23673-.4215 0-.11163-.0404-.21172-.12125-.30025-.0847-.0847-.31373-.18862-.68711-.3118-1.00084-.33105-1.62059-.5928-1.85925-.78527-.37339-.30025-.56009-.69289-.56008-1.17791s.18091-.90267.54276-1.25297c.50426-.48887 1.25296-.7333 2.24611-.73331 .78911,1e-005 1.38576.14436 1.78995.43306s.66016.67942.76795,1.17213l-1.53012.26561c-.0808-.22326-.21172-.39071-.39264-.50235-.24636-.15012-.54276-.22518-.8892-.22518s-.5957.0577-.74774.17322-.22808.24829-.22808.39841 .077.28101.23096.38109c.0962.0616.40611.16937.92963.32334 .80836.23482 1.3492.46578 1.62251.69289 .38493.3195.5774.70444.5774,1.15481 0,.58126-.24444,1.08552-.7333,1.5128s-1.17791.64092-2.06711.64092-1.56959-.16263-2.05268-.4879-.81126-.78239-.98448-1.37134z"/>
  </g>
  <g transform="matrix(.03163 .00257 -.00257 .03163 131.4 -210.8)" filter="url(#as)" opacity=".5083">
   <path d="m0 0h1235v650h-1235z" fill="#fff"/>
   <use width="1" height="1" xlink:href="#c"/>
   <use y="100" width="1" height="1" xlink:href="#c"/>
   <use y="200" width="1" height="1" xlink:href="#c"/>
   <use y="300" width="1" height="1" xlink:href="#c"/>
   <use y="400" width="1" height="1" xlink:href="#c"/>
   <use y="500" width="1" height="1" xlink:href="#c"/>
   <use y="600" width="1" height="1" xlink:href="#c"/>
   <path d="m0 0h494v350h-494z" fill="#002868"/>
   <use transform="matrix(650,0,0,650,247,175)" width="1" height="1" xlink:href="#u"/>
  </g>
  <g transform="matrix(.9937 .11208 -.11208 .9937 -37.372 -409.54)" fill="#1a1a1a" fill-rule="evenodd" filter="url(#ap)" font-family="Arial" font-size="29.244" font-weight="bold" text-anchor="middle">
   <path d="m235.97 177.58h4.2266v11.338c-1e-5 1.7992 0.0523 2.9653 0.15707 3.4984 0.18086 0.85675 0.61162 1.5445 1.2923 2.0633s1.6112 0.77822 2.7916 0.77821c1.1994 1e-5 2.1038-0.24512 2.713-0.73537s0.97573-1.0924 1.0995-1.8063 0.18561-1.8991 0.18563-3.5555v-11.58h4.2266v10.995c-2e-5 2.5131-0.11425 4.2885-0.3427 5.3261s-0.64972 1.9134-1.2637 2.6274-1.4351 1.2827-2.4632 1.7064-2.3704 0.63542-4.0267 0.63542c-1.9991 0-3.5151-0.23085-4.5479-0.69254s-1.8492-1.0614-2.4489-1.7992-0.99478-1.5112-1.1852-2.3204c-0.27606-1.1994-0.4141-2.97-0.41409-5.3118z"/>
   <path d="m270.9 198.51h-4.0124v-7.7393c-1e-5 -1.6373-0.0857-2.6964-0.25702-3.1771s-0.44981-0.85436-0.83533-1.1209-0.84962-0.39981-1.3922-0.39982c-0.69493 1e-5 -1.3184 0.1904-1.8706 0.57117s-0.93053 0.88532-1.1352 1.5136-0.307 1.7897-0.307 3.4841v6.8683h-4.0124v-15.164h3.7269v2.2276c1.3232-1.7135 2.9891-2.5702 4.9977-2.5702 0.88529 2e-5 1.6944 0.15947 2.4274 0.47835s1.2875 0.72588 1.6635 1.2209c0.376 0.49503 0.63778 1.0567 0.78535 1.6849s0.22131 1.5279 0.22133 2.6988z"/>
   <path d="m274.98 181.29v-3.7126h4.0124v3.7126zm0 17.221v-15.164h4.0124v15.164z"/>
   <path d="m290.0475,183.34981v3.19853h-2.7416v6.11149c0,1.23753.0262,1.95862.0785,2.16329s.17134.37364.35698.50691 .41171.19991.67826.19991c.37125,0 .9091-.12851 1.61354-.38554l.3427,3.11286c-.93291.39981-1.98957.59972-3.16997.59972-.72348,0-1.37556-.12137-1.95624-.36412s-1.00669-.55688-1.27799-.94242-.45932-.90673-.56403-1.56357c-.0857-.46645-.12851-1.40887-.12851-2.82727v-6.61126h-1.84201v-3.19853h1.84201v-3.0129l4.02672-2.34178v5.35468z"/>
   <path d="m301.64 193.69 3.9982 0.67112c-0.51406 1.466-1.3256 2.5822-2.4346 3.3485s-2.4965 1.1495-4.1624 1.1495c-2.6369 0-4.5884-0.86151-5.8545-2.5845-0.99954-1.3803-1.4993-3.1224-1.4993-5.2262 0-2.5131 0.65684-4.4813 1.9705-5.9044s2.9748-2.1347 4.9834-2.1347c2.2561 2e-5 4.0362 0.74491 5.3404 2.2347s1.9277 3.7721 1.8706 6.8469h-10.053c0.0285 1.1899 0.35221 2.1157 0.97098 2.7773s1.3898 0.9924 2.3132 0.9924c0.62827 0 1.1566-0.17135 1.585-0.51405s0.75203-0.89483 0.97099-1.6564zm0.22846-4.0553c-0.0286-1.1614-0.32843-2.0443-0.89959-2.6488s-1.2661-0.90672-2.0848-0.90673c-0.8758 1e-5 -1.5993 0.31892-2.1704 0.95671s-0.85199 1.5041-0.84247 2.5988z"/>
   <path d="m323.05 198.51h-3.7269v-2.2276c-0.61878 0.86627-1.3494 1.5112-2.1918 1.9348s-1.6921 0.63542-2.5488 0.63542c-1.7421 0-3.2342-0.70206-4.4765-2.1062s-1.8634-3.3627-1.8634-5.8759c0-2.5702 0.60448-4.5241 1.8134-5.8616s2.7368-2.0062 4.5836-2.0062c1.6944 2e-5 3.1604 0.70446 4.398 2.1133v-7.5394h4.0124zm-10.709-7.9106c-1e-5 1.6183 0.2237 2.7892 0.67112 3.5127 0.64731 1.0471 1.5517 1.5707 2.713 1.5707 0.92337 0 1.7087-0.39268 2.3561-1.178s0.97097-1.9586 0.97098-3.5198c-1e-5 -1.742-0.31415-2.9962-0.94242-3.7626s-1.4327-1.1495-2.4132-1.1495c-0.95195 1e-5 -1.7492 0.37841-2.3918 1.1352s-0.96385 1.8872-0.96384 3.3913z"/>
   <path d="m334.08 191.7 4.1124-0.39981c0.2475 1.3803 0.74965 2.3941 1.5064 3.0415s1.7778 0.97098 3.0629 0.97098c1.3613 0 2.387-0.28796 3.0772-0.86389s1.0352-1.2494 1.0352-2.0205c-1e-5 -0.49501-0.14518-0.91624-0.43551-1.2637s-0.79727-0.64969-1.5207-0.90672c-0.49503-0.17135-1.6231-0.47597-3.3842-0.91387-2.2656-0.56164-3.8554-1.2518-4.7692-2.0705-1.2851-1.1518-1.9277-2.556-1.9277-4.2124-1e-5 -1.0662 0.30224-2.0633 0.90672-2.9915s1.4755-1.6349 2.6131-2.1204 2.5107-0.72822 4.1195-0.72824c2.6274 2e-5 4.605 0.57595 5.933 1.7278s2.0252 2.6893 2.0919 4.6122l-4.2266 0.18563c-0.18089-1.0757-0.5688-1.8491-1.1638-2.3204s-1.4874-0.7068-2.6773-0.70681c-1.228 1e-5 -2.1895 0.25228-2.8844 0.75679-0.44742 0.32368-0.67113 0.75681-0.67112 1.2994-1e-5 0.49502 0.20942 0.91864 0.62828 1.2708 0.53308 0.44743 1.8277 0.91388 3.8839 1.3994s3.5769 0.98765 4.5622 1.5064 1.7563 1.228 2.3132 2.1276 0.83531 2.011 0.83533 3.3342c-2e-5 1.1994-0.3332 2.3228-0.99954 3.3699s-1.6088 1.8254-2.8273 2.3346-2.7368 0.76393-4.5551 0.76393c-2.6464 0-4.6788-0.61162-6.0972-1.8349s-2.2656-3.0058-2.5417-5.3476z"/>
   <path d="m361.61467,183.34981v3.19853h-2.7416v6.11149c-1e-005,1.23753.0262,1.95862.0785,2.16329s.17134.37364.35697.50691 .41171.19991.67826.19991c.37126,0 .9091-.12851 1.61355-.38554l.3427,3.11286c-.93291.39981-1.98957.59972-3.16997.59972-.72349,0-1.37557-.12137-1.95625-.36412s-1.00668-.55688-1.27798-.94242-.45932-.90673-.56403-1.56357c-.0857-.46645-.12852-1.40887-.12851-2.82727v-6.61126h-1.84202v-3.19853h1.84202v-3.0129l4.02672-2.34178v5.35468z"/>
   <path d="m367.42629,187.97626-3.64118-.65684c.40933-1.46598 1.11377-2.5512 2.11331-3.25565s2.48457-1.05664 4.4551-1.05666c1.78965,2e-005 3.12237.21182 3.99817.63542s1.49216.96148 1.84915,1.61355 .53545,1.84916.53547,3.59121l-.0428,4.68356c-1e-005,1.33273.0642,2.31561.19277,2.94865s.36886,1.31131.7211,2.03478h-3.96961c-.10473-.26654-.23324-.6616-.38554-1.18517-.0666-.23798-.11424-.39505-.14279-.47121-.68541.66636-1.41841,1.16613-2.19899,1.49931s-1.61355.49977-2.49885.49977c-1.5612,0-2.79158-.42361-3.69117-1.27084s-1.34938-1.91817-1.34938-3.21281c0-.85675.20467-1.62068.61401-2.29181s.98288-1.18516 1.72063-1.54215 1.80155-.66873 3.1914-.93529c1.87532-.35221 3.17472-.68063 3.89821-.98526v-.39981c-1e-005-.77107-.1904-1.32081-.57117-1.64925s-1.0995-.49262-2.15615-.49263c-.71397,1e-005-1.27085.14043-1.67066.42124s-.72349.77346-.97099,1.47789zm5.36897,3.25565c-.51406.17136-1.32797.37602-2.44174.614s-1.84202.47122-2.18471.69968c-.52357.37127-.78536.84248-.78535,1.41364-1e-005,.56165.20942,1.04714.62828,1.45647s.95194.61401 1.59927.61401c.72347,0 1.41362-.23799 2.07047-.71396 .48549-.36174.80439-.80439.95671-1.32796 .1047-.3427.15706-.99478.15707-1.95625z"/>
   <path d="m387.65987,183.34981v3.19853h-2.7416v6.11149c-1e-005,1.23753.0262,1.95862.0785,2.16329s.17135.37364.35698.50691 .41171.19991.67826.19991c.37125,0 .9091-.12851 1.61355-.38554l.3427,3.11286c-.93292.39981-1.98957.59972-3.16998.59972-.72348,0-1.37556-.12137-1.95624-.36412s-1.00669-.55688-1.27799-.94242-.45931-.90673-.56402-1.56357c-.0857-.46645-.12852-1.40887-.12852-2.82727v-6.61126h-1.84201v-3.19853h1.84201v-3.0129l4.02673-2.34178v5.35468z"/>
   <path d="m399.25 193.69 3.9982 0.67112c-0.51406 1.466-1.3256 2.5822-2.4346 3.3485s-2.4965 1.1495-4.1624 1.1495c-2.6369 0-4.5884-0.86151-5.8545-2.5845-0.99954-1.3803-1.4993-3.1224-1.4993-5.2262 0-2.5131 0.65684-4.4813 1.9705-5.9044s2.9748-2.1347 4.9834-2.1347c2.2561 2e-5 4.0362 0.74491 5.3404 2.2347s1.9277 3.7721 1.8706 6.8469h-10.053c0.0285 1.1899 0.35221 2.1157 0.97098 2.7773s1.3898 0.9924 2.3132 0.9924c0.62827 0 1.1566-0.17135 1.585-0.51405s0.75203-0.89483 0.97099-1.6564zm0.22846-4.0553c-0.0286-1.1614-0.32843-2.0443-0.89958-2.6488s-1.2661-0.90672-2.0848-0.90673c-0.8758 1e-5 -1.5993 0.31892-2.1704 0.95671s-0.85199 1.5041-0.84247 2.5988z"/>
   <path d="m405.34 194.19 4.0267-0.61401c0.17135 0.7806 0.51881 1.3732 1.0424 1.7778s1.2566 0.60686 2.199 0.60686c1.0376 0 1.8182-0.19038 2.3418-0.57116 0.35221-0.26655 0.52832-0.62352 0.52833-1.0709-1e-5 -0.30462-0.0952-0.55688-0.28558-0.7568-0.19992-0.19038-0.64733-0.36649-1.3422-0.52833-3.2366-0.71395-5.2881-1.366-6.1543-1.9562-1.1994-0.81867-1.7992-1.9562-1.7992-3.4127-1e-5 -1.3137 0.5188-2.4179 1.5564-3.3128s2.6464-1.3422 4.8264-1.3422c2.0752 2e-5 3.6174 0.33796 4.6264 1.0138s1.704 1.6754 2.0848 2.9986l-3.784 0.69968c-0.16184-0.5902-0.46884-1.0424-0.92101-1.3565s-1.0971-0.47119-1.9348-0.47121c-1.0567 2e-5 -1.8135 0.14757-2.2704 0.44266-0.30463 0.20944-0.45694 0.48074-0.45693 0.81391-1e-5 0.28559 0.13326 0.52834 0.39981 0.72824 0.36174 0.26655 1.6112 0.64257 3.7483 1.128s3.6293 1.0805 4.4765 1.7849c0.8377 0.71396 1.2566 1.7087 1.2566 2.9843-2e-5 1.3898-0.5807 2.5845-1.7421 3.5841s-2.8796 1.4993-5.1548 1.4993c-2.0657 0-3.7007-0.41885-4.9049-1.2566s-1.9919-1.9753-2.3632-3.4127z"/>
  </g>
  <g transform="matrix(.99858 .05326 -.05326 .99858 -2.3363 -469.63)" filter="url(#aq)">
   <path transform="translate(-19.727 40.365)" d="m425.2 236.56c0 5.8666-4.7558 10.622-10.622 10.622s-10.622-4.7558-10.622-10.622 4.7558-10.622 10.622-10.622 10.622 4.7558 10.622 10.622z" fill="#000080" fill-rule="evenodd"/>
   <g fill="#fff" fill-rule="evenodd" font-family="Arial" font-size="6.6417" font-weight="bold" text-anchor="middle">
    <path d="m385.69 279.3v-4.7542h0.93398l1.9458 3.1749v-3.1749h0.89182v4.7542h-0.96317l-1.9166-3.1003v3.1003z"/>
    <path d="m394.77 279.3h-1.0442l-0.41511-1.0799h-1.9004l-0.3924 1.0799h-1.0183l1.8518-4.7542h1.0151zm-1.7674-1.8809-0.65509-1.7642-0.64211 1.7642z"/>
    <path d="m395.0404,277.75381 .93398-.0908c.0562.31349.17026.54375.34214.69076s.40375.22053.69562.22053c.30917,0 .54212-.0654.69887-.1962s.23511-.28377.23512-.45889c-1e-005-.11242-.033-.20809-.0989-.28701s-.18107-.14755-.34538-.20593c-.11243-.0389-.36863-.10809-.7686-.20755-.51455-.12755-.87561-.2843-1.08316-.47023-.29187-.2616-.43781-.5805-.4378-.95669-1e-005-.24214.0686-.46861.20593-.67941s.33511-.37132.59347-.48159 .57022-.16538.9356-.16539c.59671,1e-005 1.04587.13081 1.34747.3924s.45996.61077.4751,1.04749l-.95993.0422c-.0411-.2443-.12918-.41996-.2643-.52698s-.33782-.16053-.60807-.16053c-.2789,0-.49726.0573-.65508.17188-.10162.0735-.15243.17188-.15242.29511-1e-005,.11243.0476.20864.14269.28863 .12107.10161.4151.20755.88209.31781s.81237.22431 1.03614.34214 .39889.2789.52537.48321 .18971.45672.18972.75724c-1e-005,.27241-.0757.52753-.22701.76535s-.36539.41456-.64212.53023-.62158.1735-1.03452.1735c-.60104,0-1.06262-.13891-1.38476-.41673s-.51456-.68265-.57725-1.2145z"/>
    <path d="m404.01 279.3h-1.0442l-0.41511-1.0799h-1.9004l-0.3924 1.0799h-1.0183l1.8518-4.7542h1.0151zm-1.7674-1.8809-0.65509-1.7642-0.64212 1.7642z"/>
   </g>
   <path transform="matrix(.73561 0 .49669 .80949 -53.225 54.969)" d="m429.45 274.19c0 4.8818-2.4458 8.8392-5.463 8.8392s-5.463-3.9575-5.463-8.8392 2.4458-8.8393 5.463-8.8393 5.463 3.9575 5.463 8.8393z" fill="none" filter="url(#ar)" opacity=".9042" stroke="#00c3ff" stroke-width="1.2"/>
  </g>
  <path transform="matrix(.97331 .22951 -.1862 .78961 -73.843 -100.13)" d="m-79.416-126.42h6.2287v18.686h-6.2287z" fill="#1a1a1a" filter="url(#ao)" opacity=".9042"/>
  <g transform="translate(-32.444 -410.66)" fill="#1a1a1a" fill-rule="evenodd" filter="url(#an)">
   <path transform="matrix(.99538,.09604,.09082,-.99587,0,0)" d="m2.6662-182.84h18.371v5.1179h-18.371z" opacity=".9042"/>
   <path transform="rotate(5.856)" d="m178.97 172.38h18.376v5.2502h-18.376z" opacity=".9042"/>
   <path transform="matrix(.98643,.16415,-.06309,.99801,0,0)" d="m282.13 154.9h11.421v5.2333h-11.421z" opacity=".9042"/>
  </g>
  <path transform="matrix(1 0 0 .52438 -56.058 -105.86)" d="m230.46-39.219 225.79 4.6715 84.088 15.572-126.13 10.9z" fill="#666" fill-rule="evenodd" filter="url(#am)" opacity=".5202"/>
  <path d="m394-266.02h7.3466l12.433-11.302-6.2163-6.2163 233.4-181.97 3.9558-1.6954 54.252 5.0861 3.3907 9.0419-9.6071 10.737-29.386-6.2163 2.2605-3.9558-3.3907-2.2605-3.9558 2.2605 0.56512 3.3907-118.68 132.8 5.6512 3.3907-2.8256 3.3907 15.524 6.208 38.321 8.236 7.7529-2.5764-40.098-9.1999-15.849-6.6235 115.85-132.24 31.488 7.3466 11.461-15.258-2.0254-12.433-52.874-7.5817c-18.413-0.45752-40.288 13.926-63.211 33.012l-181.4 143.54c-9.1258 10.991-15.495 21.589-14.128 31.082z" fill-rule="evenodd" filter="url(#al)"/>
  <path d="m403.31-205.84c4.9566-43.789 3.5215-60.093-1.5572-60.73 8.7795-9.9177 19.903-16.906 32.701-21.8 42.374 1.1418 85.605 0.14015 126.13 5.901 0.27505 29.969 0.16058 60.522-1.5572 93.48-51.906-0.88508-103.81-11.234-155.72-16.85z" fill="#ccc"/>
  <path d="m398.17-265.88h4.9008c5.3357 6.3971 3.784 14.172 4.5238 21.488l7.5396-7.1626 2.2619 1.8849 4.1468-1.1309 0.75396 2.2619 5.6547-2.2619 0.37698 13.571h-2.6389l0.75396 2.6389-4.5238 3.3928-0.37698 2.2619-7.9166 6.0317-2.2619-1.5079-1.131 1.1309-3.3928-2.6389h-1.5079l-2.2619 18.849h4.1468l-1.5079 3.3928-5.2777-0.75396c0.0201-20.569 5.7754-41.775-2.2619-61.448z" fill="#333"/>
  <path d="m412.49-266.62 20.088-10.044 120.98 2.7393 3.1958 30.588-117.79-15.066h-26.48z" fill="#fff" fill-rule="evenodd" filter="url(#aj)"/>
  <path d="m422.99-209.03c1.3696-1.8262 17.349-15.523 17.349-15.523l107.74 8.2178 0.91309 24.197-63.916-15.979z" fill="#b3b3b3" fill-rule="evenodd" filter="url(#ak)"/>
  <path transform="matrix(1.0586 0 0 .97016 -78.555 -98.249)" d="m456.25-109.29 49.83 7.7859 85.645 9.3431c-3.2541 24.085 1.5605 43.047 5.0637 64.236l-47.104 1.1726c-13.316-11.555-32.894-5.7244-49.833-12.465-24.321-18.464-33.287-44.606-43.601-70.073z" fill="#b3b39c" filter="url(#ai)" opacity=".3498" stroke="#b3b3b3" stroke-width="1.2"/>
  <path transform="matrix(.99328 .11575 -.05999 .9982 -43.601 -94.988)" d="m456.42-158.19h115.56v4.6637h-115.56z" fill="#333" fill-rule="evenodd" filter="url(#ah)"/>
  <path d="m417.61-271.5c6.2547 25.11 3.7843 50.22 0.45654 75.33m10.957-78.982c9.0459 28.977 5.258 54.992-1.3696 80.352m21.001-84.004c6.0488 29.696 5.0597 58.113-2.2827 85.374m26.48-87.2c1.1264 29.828 0.24242 59.655-2.2827 89.483m26.48-88.57c1.0811 29.767 1.263 63.908-4.1089 89.026m42.459-86.744c2.256 30.762 0.48149 60.851-4.5654 90.396m-12.327-91.766c2.3962 30.151 0.79811 59.636-4.1089 88.57m-112.31-71.678c29.024-32.355 141.85-13.657 153.4-14.153 5.6413 11.69 3.7194 21.867 3.6524 32.415l-7.3047 59.807c-54.027-9.6659-104.2-4.5335-146.09-14.609" fill="none" filter="url(#ag)" opacity=".2825" stroke="#000" stroke-linejoin="round" stroke-width=".4"/>
  <g transform="translate(-12.457 -395.52)">
   <path d="m433.44 204.26h30.401l-3.1295 34.648-28.836-2.4589z" fill="none" opacity=".2825" stroke="#000" stroke-linejoin="round" stroke-width=".4"/>
   <path d="m500.72 208.29 44.707 4.9178-1.3412 33.307-45.154-2.906z" fill="none" opacity=".2825" stroke="#000" stroke-linejoin="round" stroke-width=".4"/>
   <path d="m502.96 214.1h5.3649v5.3649h-5.3649z" filter="url(#o)"/>
   <path transform="matrix(1.6726 0 0 1.6726 -353.21 -157.13)" d="m523.97 229.97c0 1.358-1.1009 2.4589-2.4589 2.4589s-2.4589-1.1009-2.4589-2.4589 1.1009-2.4589 2.4589-2.4589 2.4589 1.1009 2.4589 2.4589z" fill="#1a1a1a" fill-rule="evenodd" filter="url(#ae)"/>
   <path d="m513.59 213.7h1.9618v1.7983h-1.9618z" fill-rule="evenodd" filter="url(#a)"/>
   <path d="m517.7 214.06h1.9618v1.7983h-1.9618z" fill-rule="evenodd" filter="url(#a)"/>
   <path d="m521.59 214.13h1.9618v1.7983h-1.9618z" fill-rule="evenodd" filter="url(#a)"/>
   <path d="m517.34 218.31h1.9618v1.7983h-1.9618z" fill-rule="evenodd" filter="url(#a)"/>
   <path d="m505.32 224.43h3.2196v2.9513h-3.2196z" fill-rule="evenodd" filter="url(#af)" opacity=".6816"/>
   <path d="m501.73 230.96h5.3649v5.3649h-5.3649z" filter="url(#o)"/>
   <path d="m529.52 215.28h1.9618v1.7983h-1.9618z" fill-rule="evenodd" filter="url(#a)"/>
   <path d="m537.45 216.07h1.9618v1.7983h-1.9618z" fill-rule="evenodd" filter="url(#a)"/>
   <path d="m541.34 216.07h1.9618v1.7983h-1.9618z" fill-rule="evenodd" filter="url(#a)"/>
   <path d="m515.18 238.2h1.9618v1.7983h-1.9618z" fill-rule="evenodd" filter="url(#a)"/>
   <path d="m530.53 240.14h1.9618v1.7983h-1.9618z" fill-rule="evenodd" filter="url(#a)"/>
   <path d="m535 240.58h1.9618v1.7983h-1.9618z" fill-rule="evenodd" filter="url(#a)"/>
   <path d="m538.82 240.72h1.9618v1.7983h-1.9618z" fill-rule="evenodd" filter="url(#a)"/>
   <path transform="matrix(.81382 0 0 .81382 99.093 44.05)" d="m531.25 236.47h1.9618v1.7983h-1.9618z" fill-rule="evenodd" filter="url(#a)"/>
   <path transform="matrix(.81382 0 0 .81382 80.716 41.672)" d="m531.25 236.47h1.9618v1.7983h-1.9618z" fill-rule="evenodd" filter="url(#a)"/>
   <path transform="matrix(.81382 0 0 .81382 83.671 41.816)" d="m531.25 236.47h1.9618v1.7983h-1.9618z" fill-rule="evenodd" filter="url(#a)"/>
   <path transform="matrix(.81382 0 0 .81382 86.626 42.104)" d="m531.25 236.47h1.9618v1.7983h-1.9618z" fill-rule="evenodd" filter="url(#a)"/>
   <path transform="matrix(.81382 0 0 .81382 86.337 46.284)" d="m531.25 236.47h1.9618v1.7983h-1.9618z" fill-rule="evenodd" filter="url(#a)"/>
   <path transform="matrix(.81382 0 0 .81382 90.445 43.113)" d="m531.25 236.47h1.9618v1.7983h-1.9618z" fill-rule="evenodd" filter="url(#a)"/>
   <path transform="matrix(.81382 0 0 .81382 103.78 44.843)" d="m531.25 236.47h1.9618v1.7983h-1.9618z" fill-rule="evenodd" filter="url(#a)"/>
   <path transform="matrix(.81382 0 0 .81382 103.92 40.879)" d="m531.25 236.47h1.9618v1.7983h-1.9618z" fill-rule="evenodd" filter="url(#a)"/>
   <path transform="matrix(.81382 0 0 .81382 103.78 44.843)" d="m531.25 236.47h1.9618v1.7983h-1.9618z" fill-rule="evenodd" filter="url(#a)"/>
   <path transform="matrix(.81382 0 0 .81382 103.78 44.843)" d="m531.25 236.47h1.9618v1.7983h-1.9618z" fill-rule="evenodd" filter="url(#a)"/>
   <path transform="matrix(.81382 0 0 .81382 107.6 41.167)" d="m531.25 236.47h1.9618v1.7983h-1.9618z" fill-rule="evenodd" filter="url(#a)"/>
   <path transform="matrix(.81382 0 0 .81382 92.031 26.826)" d="m531.25 236.47h1.9618v1.7983h-1.9618z" fill-rule="evenodd" filter="url(#a)"/>
   <path transform="matrix(.81382 0 0 .81382 108.75 28.772)" d="m531.25 236.47h1.9618v1.7983h-1.9618z" fill-rule="evenodd" filter="url(#a)"/>
   <path transform="matrix(.81382 0 0 .81382 104.64 27.763)" d="m531.25 236.47h1.9618v1.7983h-1.9618z" fill-rule="evenodd" filter="url(#a)"/>
   <path transform="matrix(.81382 0 0 .81382 88.788 25.89)" d="m531.25 236.47h1.9618v1.7983h-1.9618z" fill-rule="evenodd" filter="url(#a)"/>
   <path transform="matrix(.81382 0 0 .81382 88.788 25.89)" d="m531.25 236.47h1.9618v1.7983h-1.9618z" fill-rule="evenodd" filter="url(#a)"/>
   <path transform="matrix(.81382 0 0 .81382 92.031 26.826)" d="m531.25 236.47h1.9618v1.7983h-1.9618z" fill-rule="evenodd" filter="url(#a)"/>
   <path transform="matrix(.81382 0 0 .81382 108.75 31.727)" d="m531.25 236.47h1.9618v1.7983h-1.9618z" fill-rule="evenodd" filter="url(#a)"/>
   <path transform="matrix(.81382 0 0 .81382 104.71 31.511)" d="m531.25 236.47h1.9618v1.7983h-1.9618z" fill-rule="evenodd" filter="url(#a)"/>
   <path d="m495.71 251.8h4.0811v2.5223h-4.0811z" fill-rule="evenodd" filter="url(#ad)"/>
   <path transform="matrix(1 0 0 .30604 0 172.84)" d="m547.96 249.06h4.0811v2.5223h-4.0811z" fill-rule="evenodd" filter="url(#ac)"/>
  </g>
  <path transform="matrix(.73697 .05019 -.046 .59082 97.531 -91.384)" d="m472.65-148h18.686v9.3431h-18.686z" fill-rule="evenodd" filter="url(#ab)"/>
  <path d="m549.51-93.874h8.8657l52.751 10.86-50.978 0.44328-11.969-1.3298z" fill="#666" fill-rule="evenodd" filter="url(#aa)"/>
  <g transform="translate(-8.2633 -402.43)">
   <path transform="matrix(1.1228 0 0 1 -67.811 0)" d="m552.31 230.2h7.2934c5.7479 23.538 4.8613 47.075 4.6412 70.613h-6.9618z" fill="#333" filter="url(#l)"/>
   <path d="m562.91 247.11c22.065-13.314 48.552-16.678 73.928-22.543 10.443 24.311 11.48 48.291 6.9618 72.602l-14.918-0.33151-0.99455 2.3206-17.902-1.3261-1.3261 1.6576-6.9618-2.6521-3.9782 0.66303-2.3206-1.3261-4.3097-0.33152-2.6521-2.3206h-6.6303l-4.6412-0.33151-13.924-2.9836c3.3318-13.677 0.32937-28.621-0.33152-43.097z" fill="#28292b"/>
   <path d="m622.92 228.55 13.592-2.9836 8.2879 36.135-6.9618 5.9673-11.603 1.6576z" fill="#ccc" fill-rule="evenodd" filter="url(#n)"/>
   <path d="m588.44 248.77v5.6358l6.2988-3.9782z" fill="#ccc" fill-rule="evenodd" filter="url(#m)"/>
   <path d="m625.24 225.89c10.654 21.742 9.0581 46.311 8.6194 70.613" fill="none" filter="url(#b)" stroke="#000" stroke-linejoin="round" stroke-width="1.1"/>
   <path d="m615.29 226.89c12.522 23.869 8.5244 47.738 8.6194 71.607" fill="none" filter="url(#b)" stroke="#000" stroke-linejoin="round" stroke-width="1.1"/>
   <path d="m605.02 228.21c11.54 25.239 10.618 47.545 7.2934 69.287" fill="none" filter="url(#b)" stroke="#000" stroke-linejoin="round" stroke-width="1.1"/>
   <path d="m598.39 229.87c6.1608 20.877 8.6134 42.895 3.3152 67.298" fill="none" filter="url(#b)" stroke="#000" stroke-linejoin="round" stroke-width="1.1"/>
   <path d="m591.09 231.53c8.2564 20.288 4.9254 42.684 3.9782 64.646" fill="none" filter="url(#b)" stroke="#000" stroke-linejoin="round" stroke-width="1.1"/>
   <path d="m585.13 233.52c2.7559 16.39 5.6584 32.552 0.66303 60.999" fill="none" filter="url(#b)" stroke="#000" stroke-linejoin="round" stroke-width="1.1"/>
   <path d="m576.84 237.16c5.2773 15.109 5.1069 44.663 0.66304 56.358" fill="none" filter="url(#b)" stroke="#000" stroke-linejoin="round" stroke-width="1.1"/>
   <path d="m569.21 240.15c2.9565 15.912 4.1123 33.265 2.6521 52.711" fill="none" filter="url(#j)" stroke="#000" stroke-linejoin="round" stroke-width="1.1"/>
   <path d="m561.59 243.46c30.805-16.664 51.547-15.44 74.923-18.896" fill="none" filter="url(#k)" stroke="#000" stroke-linejoin="round" stroke-width="1.1"/>
  </g>
  <path d="m559.16-222.01 39.321-0.76106c-1.7398 9.8071-3.8484 19.302-14.206 21.817h-27.398z" fill="#666" fill-rule="evenodd" filter="url(#z)"/>
  <path d="m561.19-249.16-1.5221 14.714 33.74 2.0295-4.059-11.67z" fill="#fff" fill-rule="evenodd" filter="url(#y)"/>
  <path transform="matrix(.90177 0 0 .90177 -26.937 -388.44)" d="m657.3 181.84c0 2.1717-1.7605 3.9321-3.9321 3.9321s-3.9321-1.7605-3.9321-3.9321 1.7605-3.9321 3.9321-3.9321 3.9321 1.7605 3.9321 3.9321z" fill-rule="evenodd" filter="url(#f)"/>
  <path transform="matrix(.90177 0 0 .90177 -17.329 -387.52)" d="m657.3 181.84c0 2.1717-1.7605 3.9321-3.9321 3.9321s-3.9321-1.7605-3.9321-3.9321 1.7605-3.9321 3.9321-3.9321 3.9321 1.7605 3.9321 3.9321z" fill-rule="evenodd" filter="url(#f)"/>
  <path transform="matrix(.90177 0 0 .90177 -8.8647 -386.38)" d="m657.3 181.84c0 2.1717-1.7605 3.9321-3.9321 3.9321s-3.9321-1.7605-3.9321-3.9321 1.7605-3.9321 3.9321-3.9321 3.9321 1.7605 3.9321 3.9321z" fill-rule="evenodd" filter="url(#f)"/>
  <path transform="matrix(.90177 0 0 .90177 -.17157 -385.01)" d="m657.3 181.84c0 2.1717-1.7605 3.9321-3.9321 3.9321s-3.9321-1.7605-3.9321-3.9321 1.7605-3.9321 3.9321-3.9321 3.9321 1.7605 3.9321 3.9321z" fill-rule="evenodd" filter="url(#f)"/>
  <path transform="matrix(.34107 0 0 .34107 373.72 -282.36)" d="m657.3 181.84c0 2.1717-1.7605 3.9321-3.9321 3.9321s-3.9321-1.7605-3.9321-3.9321 1.7605-3.9321 3.9321-3.9321 3.9321 1.7605 3.9321 3.9321z" fill-rule="evenodd" filter="url(#x)"/>
  <path d="m662.5-446.15 33.425 7.194-92.839 139.34-58.076-13.664z" fill="#cbcbcb" fill-rule="evenodd" filter="url(#w)" stroke="#000" stroke-width="4.2"/>
  <path d="m434.45-291.48 202.43-157.27-151.05 152.6z" fill="#f9f9f9" fill-rule="evenodd" filter="url(#v)" opacity=".6064"/>
 </g>
</svg>
